<svg xmlns="http://www.w3.org/2000/svg" xmlns:xlink="http://www.w3.org/1999/xlink" width="50" zoomAndPan="magnify" viewBox="0 0 37.5 37.499999" height="50" preserveAspectRatio="xMidYMid meet" version="1.0"><defs><clipPath id="080012d4d6"><path d="M 6.121094 16.425781 L 31.605469 16.425781 L 31.605469 21.675781 L 6.121094 21.675781 Z M 6.121094 16.425781 " clip-rule="nonzero"/></clipPath><clipPath id="d1babbdcbf"><path d="M 8.578125 16.425781 L 29.128906 16.425781 C 29.78125 16.425781 30.40625 16.703125 30.867188 17.195312 C 31.328125 17.6875 31.585938 18.355469 31.585938 19.050781 C 31.585938 19.75 31.328125 20.417969 30.867188 20.910156 C 30.40625 21.402344 29.78125 21.675781 29.128906 21.675781 L 8.578125 21.675781 C 7.925781 21.675781 7.300781 21.402344 6.839844 20.910156 C 6.378906 20.417969 6.121094 19.75 6.121094 19.050781 C 6.121094 18.355469 6.378906 17.6875 6.839844 17.195312 C 7.300781 16.703125 7.925781 16.425781 8.578125 16.425781 Z M 8.578125 16.425781 " clip-rule="nonzero"/></clipPath><clipPath id="9ba35224f0"><path d="M 6.121094 25.375 L 31.605469 25.375 L 31.605469 30.625 L 6.121094 30.625 Z M 6.121094 25.375 " clip-rule="nonzero"/></clipPath><clipPath id="9ecd0358d4"><path d="M 8.578125 25.375 L 29.128906 25.375 C 29.78125 25.375 30.40625 25.648438 30.867188 26.140625 C 31.328125 26.632812 31.585938 27.300781 31.585938 28 C 31.585938 28.695312 31.328125 29.363281 30.867188 29.855469 C 30.40625 30.347656 29.78125 30.625 29.128906 30.625 L 8.578125 30.625 C 7.925781 30.625 7.300781 30.347656 6.839844 29.855469 C 6.378906 29.363281 6.121094 28.695312 6.121094 28 C 6.121094 27.300781 6.378906 26.632812 6.839844 26.140625 C 7.300781 25.648438 7.925781 25.375 8.578125 25.375 Z M 8.578125 25.375 " clip-rule="nonzero"/></clipPath><clipPath id="3892961c16"><path d="M 6.121094 7.246094 L 31.605469 7.246094 L 31.605469 12.496094 L 6.121094 12.496094 Z M 6.121094 7.246094 " clip-rule="nonzero"/></clipPath><clipPath id="6387464534"><path d="M 8.578125 7.246094 L 29.128906 7.246094 C 29.78125 7.246094 30.40625 7.519531 30.867188 8.015625 C 31.328125 8.507812 31.585938 9.171875 31.585938 9.871094 C 31.585938 10.566406 31.328125 11.234375 30.867188 11.726562 C 30.40625 12.21875 29.78125 12.496094 29.128906 12.496094 L 8.578125 12.496094 C 7.925781 12.496094 7.300781 12.21875 6.839844 11.726562 C 6.378906 11.234375 6.121094 10.566406 6.121094 9.871094 C 6.121094 9.171875 6.378906 8.507812 6.839844 8.015625 C 7.300781 7.519531 7.925781 7.246094 8.578125 7.246094 Z M 8.578125 7.246094 " clip-rule="nonzero"/></clipPath></defs><g clip-path="url(#080012d4d6)"><g clip-path="url(#d1babbdcbf)"><path stroke-linecap="butt" transform="matrix(0.756256, 0, 0, 0.807692, 6.121171, 16.427498)" fill="none" stroke-linejoin="miter" d="M 3.248841 -0.00212496 L 30.423222 -0.00212496 C 31.285819 -0.00212496 32.112259 0.341253 32.721759 0.950628 C 33.331258 1.560003 33.672165 2.387012 33.672165 3.247875 C 33.672165 4.113575 33.331258 4.940584 32.721759 5.549959 C 32.112259 6.159334 31.285819 6.497876 30.423222 6.497876 L 3.248841 6.497876 C 2.386244 6.497876 1.559804 6.159334 0.950304 5.549959 C 0.340805 4.940584 -0.00010156 4.113575 -0.00010156 3.247875 C -0.00010156 2.387012 0.340805 1.560003 0.950304 0.950628 C 1.559804 0.341253 2.386244 -0.00212496 3.248841 -0.00212496 Z M 3.248841 -0.00212496 " stroke="#ffffff" stroke-width="2" stroke-opacity="1" stroke-miterlimit="4"/></g></g><g clip-path="url(#9ba35224f0)"><g clip-path="url(#9ecd0358d4)"><path stroke-linecap="butt" transform="matrix(0.756256, 0, 0, 0.807692, 6.121171, 25.373418)" fill="none" stroke-linejoin="miter" d="M 3.248841 0.00195857 L 30.423222 0.00195857 C 31.285819 0.00195857 32.112259 0.3405 32.721759 0.949875 C 33.331258 1.55925 33.672165 2.386259 33.672165 3.251959 C 33.672165 4.112822 33.331258 4.939831 32.721759 5.549206 C 32.112259 6.158581 31.285819 6.501959 30.423222 6.501959 L 3.248841 6.501959 C 2.386244 6.501959 1.559804 6.158581 0.950304 5.549206 C 0.340805 4.939831 -0.00010156 4.112822 -0.00010156 3.251959 C -0.00010156 2.386259 0.340805 1.55925 0.950304 0.949875 C 1.559804 0.3405 2.386244 0.00195857 3.248841 0.00195857 Z M 3.248841 0.00195857 " stroke="#ffffff" stroke-width="2" stroke-opacity="1" stroke-miterlimit="4"/></g></g><g clip-path="url(#3892961c16)"><g clip-path="url(#6387464534)"><path stroke-linecap="butt" transform="matrix(0.756256, 0, 0, 0.807692, 6.121171, 7.244854)" fill="none" stroke-linejoin="miter" d="M 3.248841 0.00153482 L 30.423222 0.00153482 C 31.285819 0.00153482 32.112259 0.340077 32.721759 0.954288 C 33.331258 1.563663 33.672165 2.385836 33.672165 3.251535 C 33.672165 4.112398 33.331258 4.939407 32.721759 5.548782 C 32.112259 6.158157 31.285819 6.501535 30.423222 6.501535 L 3.248841 6.501535 C 2.386244 6.501535 1.559804 6.158157 0.950304 5.548782 C 0.340805 4.939407 -0.00010156 4.112398 -0.00010156 3.251535 C -0.00010156 2.385836 0.340805 1.563663 0.950304 0.954288 C 1.559804 0.340077 2.386244 0.00153482 3.248841 0.00153482 Z M 3.248841 0.00153482 " stroke="#ffffff" stroke-width="2" stroke-opacity="1" stroke-miterlimit="4"/></g></g></svg>